<svg xmlns="http://www.w3.org/2000/svg" width="1200" height="210" viewBox="0 0 1200 210" fill="none"><g clip-path="url(#clip0_122_9)"><path d="M208.298 98.775C211.827 98.775 214.698 101.642 214.698 105.166C214.698 108.689 211.827 111.556 208.298 111.556C204.77 111.556 201.898 108.689 201.898 105.166C201.898 101.642 204.77 98.775 208.298 98.775ZM208.298 96.6899C203.611 96.6899 199.81 100.485 199.81 105.166C199.81 109.846 203.611 113.641 208.298 113.641C212.986 113.641 216.787 109.846 216.787 105.166C216.787 100.485 212.986 96.6899 208.298 96.6899Z" fill="#B5B5B5"></path><path d="M208.298 108.355C210.063 108.355 211.493 106.927 211.493 105.165C211.493 103.403 210.063 101.975 208.298 101.975C206.534 101.975 205.104 103.403 205.104 105.165C205.104 106.927 206.534 108.355 208.298 108.355Z" fill="#B5B5B5"></path><path d="M249.444 98.775C252.973 98.775 255.844 101.642 255.844 105.166C255.844 108.689 252.973 111.556 249.444 111.556C245.916 111.556 243.044 108.689 243.044 105.166C243.044 101.642 245.916 98.775 249.444 98.775ZM249.444 96.6899C244.757 96.6899 240.956 100.485 240.956 105.166C240.956 109.846 244.757 113.641 249.444 113.641C254.132 113.641 257.933 109.846 257.933 105.166C257.933 100.485 254.132 96.6899 249.444 96.6899Z" fill="#B5B5B5"></path><path d="M249.445 108.355C251.209 108.355 252.639 106.927 252.639 105.165C252.639 103.403 251.209 101.975 249.445 101.975C247.68 101.975 246.25 103.403 246.25 105.165C246.25 106.927 247.68 108.355 249.445 108.355Z" fill="#B5B5B5"></path><path d="M455.717 98.775C459.246 98.775 462.117 101.642 462.117 105.166C462.117 108.689 459.246 111.556 455.717 111.556C452.188 111.556 449.317 108.689 449.317 105.166C449.317 101.642 452.188 98.775 455.717 98.775ZM455.717 96.6899C451.03 96.6899 447.229 100.485 447.229 105.166C447.229 109.846 451.03 113.641 455.717 113.641C460.405 113.641 464.206 109.846 464.206 105.166C464.206 100.485 460.405 96.6899 455.717 96.6899Z" fill="#B5B5B5"></path><path d="M455.717 108.355C457.482 108.355 458.912 106.927 458.912 105.165C458.912 103.403 457.482 101.975 455.717 101.975C453.953 101.975 452.523 103.403 452.523 105.165C452.523 106.927 453.953 108.355 455.717 108.355Z" fill="#B5B5B5"></path><path d="M496.195 98.775C499.724 98.775 502.595 101.642 502.595 105.166C502.595 108.689 499.724 111.556 496.195 111.556C492.667 111.556 489.795 108.689 489.795 105.166C489.795 101.642 492.667 98.775 496.195 98.775ZM496.195 96.6899C491.508 96.6899 487.707 100.485 487.707 105.166C487.707 109.846 491.508 113.641 496.195 113.641C500.883 113.641 504.684 109.846 504.684 105.166C504.684 100.485 500.883 96.6899 496.195 96.6899Z" fill="#B5B5B5"></path><path d="M496.195 108.355C497.96 108.355 499.39 106.927 499.39 105.165C499.39 103.403 497.96 101.975 496.195 101.975C494.431 101.975 493 103.403 493 105.165C493 106.927 494.431 108.355 496.195 108.355Z" fill="#B5B5B5"></path><path d="M703.627 98.775C707.156 98.775 710.027 101.642 710.027 105.166C710.027 108.689 707.156 111.556 703.627 111.556C700.098 111.556 697.227 108.689 697.227 105.166C697.227 101.642 700.098 98.775 703.627 98.775ZM703.627 96.6899C698.94 96.6899 695.139 100.485 695.139 105.166C695.139 109.846 698.94 113.641 703.627 113.641C708.315 113.641 712.115 109.846 712.115 105.166C712.115 100.485 708.315 96.6899 703.627 96.6899Z" fill="#B5B5B5"></path><path d="M703.627 108.355C705.392 108.355 706.822 106.927 706.822 105.165C706.822 103.403 705.392 101.975 703.627 101.975C701.863 101.975 700.432 103.403 700.432 105.165C700.432 106.927 701.863 108.355 703.627 108.355Z" fill="#B5B5B5"></path><path d="M743.792 98.775C747.321 98.775 750.192 101.642 750.192 105.166C750.192 108.689 747.321 111.556 743.792 111.556C740.263 111.556 737.392 108.689 737.392 105.166C737.392 101.642 740.263 98.775 743.792 98.775ZM743.792 96.6899C739.104 96.6899 735.304 100.485 735.304 105.166C735.304 109.846 739.104 113.641 743.792 113.641C748.48 113.641 752.28 109.846 752.28 105.166C752.28 100.485 748.48 96.6899 743.792 96.6899Z" fill="#B5B5B5"></path><path d="M743.792 108.355C745.556 108.355 746.987 106.927 746.987 105.165C746.987 103.403 745.556 101.975 743.792 101.975C742.027 101.975 740.597 103.403 740.597 105.165C740.597 106.927 742.027 108.355 743.792 108.355Z" fill="#B5B5B5"></path><path d="M951.046 98.775C954.575 98.775 957.446 101.642 957.446 105.166C957.446 108.689 954.575 111.556 951.046 111.556C947.517 111.556 944.646 108.689 944.646 105.166C944.646 101.642 947.517 98.775 951.046 98.775ZM951.046 96.6899C946.358 96.6899 942.558 100.485 942.558 105.166C942.558 109.846 946.358 113.641 951.046 113.641C955.734 113.641 959.534 109.846 959.534 105.166C959.534 100.485 955.734 96.6899 951.046 96.6899Z" fill="#B5B5B5"></path><path d="M951.046 108.355C952.811 108.355 954.241 106.927 954.241 105.165C954.241 103.403 952.811 101.975 951.046 101.975C949.282 101.975 947.851 103.403 947.851 105.165C947.851 106.927 949.282 108.355 951.046 108.355Z" fill="#B5B5B5"></path><path d="M991.702 98.775C995.23 98.775 998.102 101.642 998.102 105.166C998.102 108.689 995.23 111.556 991.702 111.556C988.173 111.556 985.301 108.689 985.301 105.166C985.301 101.642 988.173 98.775 991.702 98.775ZM991.702 96.6899C987.014 96.6899 983.213 100.485 983.213 105.166C983.213 109.846 987.014 113.641 991.702 113.641C996.389 113.641 1000.19 109.846 1000.19 105.166C1000.19 100.485 996.389 96.6899 991.702 96.6899Z" fill="#B5B5B5"></path><path d="M991.702 108.355C993.466 108.355 994.896 106.927 994.896 105.165C994.896 103.403 993.466 101.975 991.702 101.975C989.937 101.975 988.507 103.403 988.507 105.165C988.507 106.927 989.937 108.355 991.702 108.355Z" fill="#B5B5B5"></path><path d="M1.04407 137.952V22.0773C1.04407 10.5575 10.3988 1.22705 21.9251 1.22705H187.417C198.954 1.22705 208.298 10.5575 208.298 22.0773V96.6897" stroke="#B5B5B5" stroke-width="2" stroke-linecap="round" stroke-linejoin="round"></path><path d="M208.298 113.641V187.326C208.298 198.845 198.954 208.176 187.417 208.176H103.987" stroke="#B5B5B5" stroke-width="2" stroke-linecap="round" stroke-linejoin="round"></path><path d="M1.04407 137.952V143.686" stroke="#B5B5B5" stroke-width="2" stroke-linecap="round" stroke-linejoin="round"></path><path d="M1.04407 155.425V187.326C1.04407 198.845 10.3988 208.176 21.9251 208.176H92.3671" stroke="#B5B5B5" stroke-width="2" stroke-linecap="round" stroke-linejoin="round" stroke-dasharray="11.26 11.26"></path><path d="M98.2451 208.176H103.987" stroke="#B5B5B5" stroke-width="2" stroke-linecap="round" stroke-linejoin="round"></path><path d="M456.208 113.63V187.325C456.208 198.845 446.864 208.176 435.327 208.176H360.604" stroke="#B5B5B5" stroke-width="2" stroke-linecap="round" stroke-linejoin="round"></path><path d="M319.281 1.22705H435.327C446.864 1.22705 456.208 10.5679 456.208 22.0772V96.7001" stroke="#B5B5B5" stroke-width="2" stroke-linecap="round" stroke-linejoin="round"></path><path d="M360.604 208.176H269.835C258.298 208.176 248.954 198.845 248.954 187.325V112.859" stroke="#B5B5B5" stroke-width="2" stroke-linecap="round" stroke-linejoin="round"></path><path d="M319.281 1.22705H313.539" stroke="#B5B5B5" stroke-width="2" stroke-linecap="round" stroke-linejoin="round"></path><path d="M302.294 1.22705H269.845C258.308 1.22705 248.964 10.5679 248.964 22.0772V86.1186" stroke="#B5B5B5" stroke-width="2" stroke-linecap="round" stroke-linejoin="round" stroke-dasharray="10.78 10.78"></path><path d="M248.954 91.7378V97.4716" stroke="#B5B5B5" stroke-width="2" stroke-linecap="round" stroke-linejoin="round"></path><path d="M703.627 113.631V188.108C703.627 199.627 694.273 208.958 682.746 208.958H517.254C505.717 208.958 496.373 199.627 496.373 188.108V113.495" stroke="#B5B5B5" stroke-width="2" stroke-linecap="round" stroke-linejoin="round"></path><path d="M703.627 96.7001V72.2324" stroke="#B5B5B5" stroke-width="2" stroke-linecap="round" stroke-linejoin="round"></path><path d="M496.373 96.5436V22.859C496.373 11.3393 505.717 2.00879 517.254 2.00879H600.684" stroke="#B5B5B5" stroke-width="2" stroke-linecap="round" stroke-linejoin="round"></path><path d="M703.627 72.2323V22.859C703.627 11.3393 694.272 2.00879 682.746 2.00879H600.684" stroke="#B5B5B5" stroke-width="2" stroke-linecap="round" stroke-linejoin="round" stroke-dasharray="11 11"></path><path d="M861.216 1.22705H764.673C753.136 1.22705 743.792 10.5575 743.792 22.0772V96.7001" stroke="#B5B5B5" stroke-width="2" stroke-linecap="round" stroke-linejoin="round"></path><path d="M743.792 113.63V187.325C743.792 198.835 753.136 208.176 764.673 208.176H880.719" stroke="#B5B5B5" stroke-width="2" stroke-linecap="round" stroke-linejoin="round"></path><path d="M951.046 96.7001V22.0772C951.046 10.5575 941.702 1.22705 930.165 1.22705H856.372" stroke="#B5B5B5" stroke-width="2" stroke-linecap="round" stroke-linejoin="round" stroke-dasharray="11 11"></path><path d="M951.046 113.63V187.325C951.046 198.835 941.702 208.176 930.165 208.176H880.719" stroke="#B5B5B5" stroke-width="2" stroke-linecap="round" stroke-linejoin="round"></path><path d="M991.702 96.6897V22.0772C991.702 10.5575 1001.06 1.22705 1012.58 1.22705H1178.08C1189.61 1.22705 1198.96 10.5575 1198.96 22.0772V96.6897" stroke="#B5B5B5" stroke-width="2" stroke-linecap="round" stroke-linejoin="round"></path><path d="M991.702 137.952V113.641" stroke="#B5B5B5" stroke-width="2" stroke-linecap="round" stroke-linejoin="round"></path><path d="M1198.96 89.7153V187.326C1198.96 198.845 1189.61 208.176 1178.07 208.176H1094.64" stroke="#B5B5B5" stroke-width="2" stroke-linecap="round" stroke-linejoin="round" stroke-dasharray="11 11"></path><path d="M991.702 137.952V187.325C991.702 198.845 1001.06 208.176 1012.58 208.176H1094.64" stroke="#B5B5B5" stroke-width="2" stroke-linecap="round" stroke-linejoin="round"></path><path d="M215.607 105.166H241.739" stroke="#B5B5B5" stroke-width="2" stroke-miterlimit="10"></path><path d="M462.901 105.166H489.023" stroke="#B5B5B5" stroke-width="2" stroke-miterlimit="10"></path><path d="M710.643 105.166H736.765" stroke="#B5B5B5" stroke-width="2" stroke-miterlimit="10"></path><path d="M958.313 105.166H984.435" stroke="#B5B5B5" stroke-width="2" stroke-miterlimit="10"></path></g><defs><clipPath id="clip0_122_9"><rect width="1200" height="209.816" fill="white" transform="translate(0 0.18457)"></rect></clipPath></defs></svg>